<svg width="130" height="11" viewBox="0 0 130 11" fill="none" xmlns="http://www.w3.org/2000/svg">
<path d="M4.61443 10.7778L2.35824 3.4321H2.30577C2.31451 3.607 2.32763 3.86934 2.34512 4.21914C2.36261 4.56894 2.3801 4.94497 2.39759 5.34724C2.41508 5.74076 2.42382 6.0993 2.42382 6.42286V10.7778H0.652976V1.41202H3.35516L5.57199 8.57411H5.61135L7.95936 1.41202H10.6615V10.7778H8.81199V6.34416C8.81199 6.04683 8.81636 5.70578 8.82511 5.321C8.8426 4.93622 8.85571 4.57331 8.86446 4.23226C8.88195 3.88246 8.89506 3.62011 8.90381 3.44522H8.85134L6.43774 10.7778H4.61443ZM15.218 3.47145C16.1799 3.47145 16.9145 3.68133 17.4217 4.10109C17.9377 4.5121 18.1956 5.1461 18.1956 6.00311V10.7778H16.8314L16.451 9.80715H16.3985C16.1974 10.0607 15.9875 10.2706 15.7689 10.4368C15.559 10.6029 15.3142 10.721 15.0343 10.7909C14.7632 10.8697 14.4266 10.909 14.0243 10.909C13.6045 10.909 13.2241 10.8303 12.8831 10.6729C12.5508 10.5067 12.2884 10.2575 12.096 9.9252C11.9037 9.58415 11.8075 9.15565 11.8075 8.6397C11.8075 7.87889 12.0742 7.31922 12.6076 6.96067C13.1411 6.59339 13.9412 6.39225 15.0081 6.35727L16.2543 6.31792V6.00311C16.2543 5.62707 16.1537 5.35161 15.9526 5.17671C15.7602 5.00181 15.4891 4.91436 15.1393 4.91436C14.7895 4.91436 14.4484 4.96683 14.1161 5.07177C13.7838 5.16797 13.4515 5.29039 13.1192 5.43906L12.4765 4.1142C12.8612 3.91307 13.2854 3.75566 13.7488 3.64198C14.2211 3.52829 14.7108 3.47145 15.218 3.47145ZM15.4934 7.48537C14.8638 7.50286 14.4266 7.61654 14.1817 7.82642C13.9369 8.0363 13.8144 8.31176 13.8144 8.65282C13.8144 8.95014 13.9019 9.16439 14.0768 9.29557C14.2517 9.418 14.479 9.47921 14.7589 9.47921C15.1786 9.47921 15.5328 9.35678 15.8214 9.11192C16.11 8.85832 16.2543 8.50415 16.2543 8.04942V7.45913L15.4934 7.48537ZM21.8753 10.909C21.0795 10.909 20.428 10.5986 19.9208 9.97767C19.4223 9.34804 19.1731 8.42545 19.1731 7.2099C19.1731 5.98562 19.4267 5.05865 19.9339 4.42902C20.4411 3.79938 21.1057 3.48457 21.9277 3.48457C22.2688 3.48457 22.5705 3.53266 22.8328 3.62886C23.0952 3.71631 23.3182 3.83874 23.5018 3.99615C23.6942 4.15355 23.856 4.33283 23.9872 4.53396H24.0527C24.0265 4.39404 23.9959 4.19291 23.9609 3.93056C23.9259 3.65947 23.9085 3.384 23.9085 3.10416V0.808622H25.8629V10.7778H24.3676L23.9872 9.8465H23.9085C23.786 10.0389 23.6286 10.2182 23.4362 10.3843C23.2526 10.5417 23.034 10.6685 22.7804 10.7647C22.5268 10.8609 22.2251 10.909 21.8753 10.909ZM22.5574 9.34804C23.0995 9.34804 23.48 9.19063 23.6986 8.87581C23.9172 8.55225 24.0309 8.07128 24.0396 7.4329V7.22302C24.0396 6.52343 23.9303 5.98999 23.7117 5.6227C23.5018 5.25541 23.1083 5.07177 22.5311 5.07177C22.1026 5.07177 21.7659 5.25979 21.5211 5.63582C21.2762 6.00311 21.1538 6.53655 21.1538 7.23614C21.1538 7.93573 21.2762 8.4648 21.5211 8.82334C21.7659 9.17314 22.1114 9.34804 22.5574 9.34804ZM30.2679 3.48457C30.9325 3.48457 31.501 3.61137 31.9732 3.86497C32.4542 4.11857 32.8258 4.48586 33.0882 4.96683C33.3505 5.4478 33.4817 6.03808 33.4817 6.73768V7.68213H28.8644C28.8819 8.23306 29.0436 8.66593 29.3497 8.98075C29.6645 9.29557 30.0974 9.45298 30.6483 9.45298C31.1118 9.45298 31.5316 9.40925 31.9076 9.3218C32.2836 9.22561 32.6728 9.08132 33.075 8.88893V10.3974C32.7252 10.5723 32.3536 10.6991 31.9601 10.7778C31.5753 10.8653 31.1074 10.909 30.5565 10.909C29.8394 10.909 29.2054 10.7778 28.6545 10.5155C28.1036 10.2444 27.6707 9.83775 27.3559 9.29557C27.041 8.75338 26.8836 8.07128 26.8836 7.24926C26.8836 6.40974 27.0236 5.71452 27.3034 5.16359C27.592 4.60392 27.9899 4.18416 28.4971 3.90432C29.0043 3.62449 29.5946 3.48457 30.2679 3.48457ZM30.281 4.87501C29.905 4.87501 29.5902 4.99744 29.3366 5.2423C29.0917 5.48715 28.9474 5.86756 28.9037 6.38351H31.6452C31.6452 6.09493 31.5928 5.83695 31.4878 5.60958C31.3916 5.38222 31.243 5.20294 31.0419 5.07177C30.8407 4.9406 30.5871 4.87501 30.281 4.87501ZM42.6322 8.27241C42.5972 8.12375 42.5447 7.90513 42.4748 7.61654C42.4136 7.31922 42.3436 7.0044 42.2649 6.67209C42.1862 6.33104 42.1119 6.02059 42.0419 5.74076C41.9719 5.45218 41.9238 5.2423 41.8976 5.11112H41.8451C41.8189 5.2423 41.7708 5.45218 41.7008 5.74076C41.6396 6.02059 41.5697 6.33104 41.491 6.67209C41.4123 7.0044 41.3379 7.31922 41.268 7.61654C41.198 7.91387 41.1455 8.14124 41.1106 8.29865L40.5334 10.7778H38.4346L36.4014 3.61574H38.3428L39.1692 6.79015C39.2304 7.00877 39.2829 7.27112 39.3266 7.57719C39.3791 7.88326 39.4272 8.18059 39.4709 8.46917C39.5146 8.74901 39.5452 8.97201 39.5627 9.13816H39.6152C39.6239 9.01573 39.6414 8.85395 39.6677 8.65282C39.6939 8.44294 39.7245 8.22869 39.7595 8.01006C39.8032 7.79144 39.8382 7.59468 39.8644 7.41978C39.8994 7.23614 39.9256 7.11371 39.9431 7.0525L40.822 3.61574H42.9732L43.8127 7.0525C43.8477 7.17492 43.8871 7.37169 43.9308 7.64278C43.9833 7.91387 44.027 8.18934 44.062 8.46917C44.1057 8.74901 44.1276 8.97201 44.1276 9.13816H44.18C44.1975 8.9895 44.2281 8.77525 44.2719 8.49541C44.3156 8.20683 44.3637 7.90513 44.4161 7.59031C44.4774 7.27549 44.5386 7.00877 44.5998 6.79015L45.4524 3.61574H47.3676L45.3081 10.7778H43.1831L42.6322 8.27241ZM49.8919 3.61574V10.7778H47.9374V3.61574H49.8919ZM48.9213 0.808622C49.2098 0.808622 49.4591 0.878581 49.6689 1.0185C49.8788 1.14967 49.9838 1.3989 49.9838 1.76619C49.9838 2.12473 49.8788 2.37396 49.6689 2.51388C49.4591 2.6538 49.2098 2.72376 48.9213 2.72376C48.6239 2.72376 48.3703 2.6538 48.1604 2.51388C47.9593 2.37396 47.8587 2.12473 47.8587 1.76619C47.8587 1.3989 47.9593 1.14967 48.1604 1.0185C48.3703 0.878581 48.6239 0.808622 48.9213 0.808622ZM54.3609 9.34804C54.5795 9.34804 54.7894 9.32618 54.9905 9.28245C55.1916 9.23873 55.3928 9.18626 55.5939 9.12504V10.5811C55.384 10.6685 55.1217 10.7429 54.8069 10.8041C54.5008 10.874 54.1641 10.909 53.7968 10.909C53.3683 10.909 52.9835 10.839 52.6425 10.6991C52.3102 10.5592 52.0435 10.3187 51.8423 9.97767C51.6499 9.62787 51.5537 9.1469 51.5537 8.53476V5.08489H50.6224V4.25849L51.698 3.60262L52.2621 2.09412H53.5082V3.61574H55.5152V5.08489H53.5082V8.53476C53.5082 8.80585 53.5869 9.01136 53.7443 9.15128C53.9018 9.28245 54.1073 9.34804 54.3609 9.34804ZM58.3957 2.84182C58.3957 3.19161 58.3826 3.52829 58.3563 3.85185C58.3388 4.17542 58.3214 4.40278 58.3039 4.53396H58.4088C58.5662 4.2891 58.7499 4.09234 58.9597 3.94368C59.1696 3.78627 59.4014 3.67258 59.655 3.60262C59.9173 3.52392 60.1928 3.48457 60.4814 3.48457C60.9973 3.48457 61.4477 3.57639 61.8324 3.76003C62.2172 3.94368 62.5145 4.22789 62.7244 4.61266C62.943 4.99744 63.0524 5.4959 63.0524 6.10804V10.7778H61.0979V6.59339C61.0979 6.07744 61.0017 5.69266 60.8093 5.43906C60.6256 5.17671 60.3371 5.04554 59.9435 5.04554C59.55 5.04554 59.2396 5.13736 59.0122 5.321C58.7936 5.50464 58.6362 5.77136 58.54 6.12116C58.4438 6.47096 58.3957 6.89946 58.3957 7.40667V10.7778H56.4412V0.808622H58.3957V2.84182ZM73.1789 10.7778L72.4968 8.54788H69.0863L68.4041 10.7778H66.266L69.5716 1.37267H71.9983L75.317 10.7778H73.1789ZM71.3424 4.70448C71.2987 4.55582 71.2419 4.3678 71.1719 4.14044C71.102 3.91307 71.032 3.68133 70.962 3.44522C70.8921 3.2091 70.8352 3.0036 70.7915 2.8287C70.7478 3.0036 70.6866 3.22222 70.6079 3.48457C70.5379 3.73817 70.4679 3.98303 70.398 4.21914C70.3368 4.44651 70.2887 4.60829 70.2537 4.70448L69.5847 6.88197H72.0245L71.3424 4.70448ZM79.4153 10.7778H75.1521V9.64974L76.2933 9.12504V3.06481L75.1521 2.54012V1.41202H79.4153V2.54012L78.2741 3.06481V9.12504L79.4153 9.64974V10.7778ZM89.587 7.18367C89.587 7.77832 89.5039 8.30739 89.3377 8.77087C89.1803 9.23435 88.9486 9.62787 88.6425 9.95144C88.3452 10.2663 87.9823 10.5067 87.5538 10.6729C87.1253 10.8303 86.6399 10.909 86.0978 10.909C85.5993 10.909 85.1358 10.8303 84.7073 10.6729C84.2876 10.5067 83.9246 10.2663 83.6186 9.95144C83.3125 9.62787 83.072 9.23435 82.8971 8.77087C82.731 8.30739 82.6479 7.77832 82.6479 7.18367C82.6479 6.38788 82.7878 5.7189 83.0676 5.17671C83.3475 4.62578 83.7497 4.20602 84.2744 3.91744C84.7991 3.62886 85.42 3.48457 86.1371 3.48457C86.8105 3.48457 87.4051 3.62886 87.9211 3.91744C88.437 4.20602 88.8437 4.62578 89.141 5.17671C89.4383 5.7189 89.587 6.38788 89.587 7.18367ZM84.6417 7.18367C84.6417 7.6559 84.6898 8.05379 84.786 8.37735C84.891 8.69217 85.0527 8.93265 85.2714 9.09881C85.49 9.25622 85.7742 9.33492 86.124 9.33492C86.4738 9.33492 86.7536 9.25622 86.9635 9.09881C87.1821 8.93265 87.3395 8.69217 87.4357 8.37735C87.5407 8.05379 87.5931 7.6559 87.5931 7.18367C87.5931 6.71144 87.5407 6.31792 87.4357 6.00311C87.3395 5.68829 87.1821 5.45218 86.9635 5.29477C86.7449 5.13736 86.4607 5.05865 86.1109 5.05865C85.5949 5.05865 85.2189 5.23792 84.9828 5.59647C84.7554 5.94626 84.6417 6.47533 84.6417 7.18367ZM94.6784 3.48457C95.4479 3.48457 96.0644 3.69445 96.5279 4.1142C96.9914 4.52521 97.2231 5.18983 97.2231 6.10804V10.7778H95.2686V6.59339C95.2686 6.07744 95.1768 5.69266 94.9932 5.43906C94.8095 5.17671 94.5166 5.04554 94.1143 5.04554C93.5197 5.04554 93.113 5.25104 92.8944 5.66205C92.6758 6.06432 92.5665 6.64586 92.5665 7.40667V10.7778H90.612V3.61574H92.1074L92.3697 4.53396H92.4746C92.6321 4.2891 92.8244 4.09234 93.0518 3.94368C93.2792 3.78627 93.5328 3.67258 93.8126 3.60262C94.0925 3.52392 94.381 3.48457 94.6784 3.48457ZM105.579 10.7778L103.323 3.4321H103.27C103.279 3.607 103.292 3.86934 103.309 4.21914C103.327 4.56894 103.344 4.94497 103.362 5.34724C103.379 5.74076 103.388 6.0993 103.388 6.42286V10.7778H101.617V1.41202H104.32L106.536 8.57411H106.576L108.924 1.41202H111.626V10.7778H109.776V6.34416C109.776 6.04683 109.781 5.70578 109.789 5.321C109.807 4.93622 109.82 4.57331 109.829 4.23226C109.846 3.88246 109.859 3.62011 109.868 3.44522H109.816L107.402 10.7778H105.579ZM115.199 3.61574V10.7778H113.244V3.61574H115.199ZM114.228 0.808622C114.516 0.808622 114.766 0.878581 114.976 1.0185C115.185 1.14967 115.29 1.3989 115.29 1.76619C115.29 2.12473 115.185 2.37396 114.976 2.51388C114.766 2.6538 114.516 2.72376 114.228 2.72376C113.931 2.72376 113.677 2.6538 113.467 2.51388C113.266 2.37396 113.165 2.12473 113.165 1.76619C113.165 1.3989 113.266 1.14967 113.467 1.0185C113.677 0.878581 113.931 0.808622 114.228 0.808622ZM118.12 7.11808L115.811 3.61574H118.028L119.418 5.89817L120.822 3.61574H123.039L120.704 7.11808L123.144 10.7778H120.927L119.418 8.32488L117.91 10.7778H115.693L118.12 7.11808ZM129.894 7.18367C129.894 7.77832 129.811 8.30739 129.644 8.77087C129.487 9.23435 129.255 9.62787 128.949 9.95144C128.652 10.2663 128.289 10.5067 127.861 10.6729C127.432 10.8303 126.947 10.909 126.404 10.909C125.906 10.909 125.443 10.8303 125.014 10.6729C124.594 10.5067 124.231 10.2663 123.925 9.95144C123.619 9.62787 123.379 9.23435 123.204 8.77087C123.038 8.30739 122.955 7.77832 122.955 7.18367C122.955 6.38788 123.095 5.7189 123.374 5.17671C123.654 4.62578 124.056 4.20602 124.581 3.91744C125.106 3.62886 125.727 3.48457 126.444 3.48457C127.117 3.48457 127.712 3.62886 128.228 3.91744C128.744 4.20602 129.15 4.62578 129.448 5.17671C129.745 5.7189 129.894 6.38788 129.894 7.18367ZM124.948 7.18367C124.948 7.6559 124.997 8.05379 125.093 8.37735C125.198 8.69217 125.359 8.93265 125.578 9.09881C125.797 9.25622 126.081 9.33492 126.431 9.33492C126.781 9.33492 127.06 9.25622 127.27 9.09881C127.489 8.93265 127.646 8.69217 127.742 8.37735C127.847 8.05379 127.9 7.6559 127.9 7.18367C127.9 6.71144 127.847 6.31792 127.742 6.00311C127.646 5.68829 127.489 5.45218 127.27 5.29477C127.052 5.13736 126.767 5.05865 126.418 5.05865C125.902 5.05865 125.526 5.23792 125.29 5.59647C125.062 5.94626 124.948 6.47533 124.948 7.18367Z" fill="#333333"/>
</svg>
